<?xml version="1.0" standalone="no"?><!DOCTYPE svg PUBLIC "-//W3C//DTD SVG 1.1//EN" "http://www.w3.org/Graphics/SVG/1.1/DTD/svg11.dtd"><svg t="1643018101886" class="icon" viewBox="0 0 1024 1024" version="1.1" xmlns="http://www.w3.org/2000/svg" p-id="11797" xmlns:xlink="http://www.w3.org/1999/xlink" width="32" height="32"><defs><style type="text/css"></style></defs><path d="M929.5 287.9L529.4 95.1a40.1 40.1 0 0 0-34.8 0L94.5 287.9c-29.2 14.1-30.4 55.3-2 71l211.5 117 188.6 104.3a32.6 32.6 0 0 0 3.8 1.8 40.2 40.2 0 0 0 31.2 0 32.6 32.6 0 0 0 3.8-1.8L720 475.9l108.5-60V608a4 4 0 0 0 4 4h64a4 4 0 0 0 4-4V376l31-17.1c28.4-15.7 27.2-56.9-2-71z m-135.4 211L558.5 629.2a96.1 96.1 0 0 1-93 0L229.9 498.9a4 4 0 0 0-5.9 3.5v280.2a40 40 0 0 0 23.8 36.6l248 110.2a39.8 39.8 0 0 0 32.4 0l248-110.2a40 40 0 0 0 23.8-36.6V502.4a4 4 0 0 0-5.9-3.5z" p-id="11798" fill="#2c2c2c"></path></svg>